<?xml version="1.0" encoding="UTF-8" standalone="no"?>
<!-- Created with Inkscape (http://www.inkscape.org/) -->

<svg
   width="210mm"
   height="297mm"
   viewBox="0 0 210 297"
   version="1.1"
   id="svg19"
   xml:space="preserve"
   inkscape:version="1.2 (dc2aedaf03, 2022-05-15)"
   sodipodi:docname="angles-up-solid.svg"
   xmlns:inkscape="http://www.inkscape.org/namespaces/inkscape"
   xmlns:sodipodi="http://sodipodi.sourceforge.net/DTD/sodipodi-0.dtd"
   xmlns="http://www.w3.org/2000/svg"
   xmlns:svg="http://www.w3.org/2000/svg"><sodipodi:namedview
     id="namedview21"
     pagecolor="#ffffff"
     bordercolor="#000000"
     borderopacity="0.25"
     inkscape:showpageshadow="2"
     inkscape:pageopacity="0.0"
     inkscape:pagecheckerboard="0"
     inkscape:deskcolor="#d1d1d1"
     inkscape:document-units="mm"
     showgrid="false"
     inkscape:zoom="2.025849"
     inkscape:cx="427.7219"
     inkscape:cy="455.36463"
     inkscape:window-width="1920"
     inkscape:window-height="991"
     inkscape:window-x="-9"
     inkscape:window-y="-9"
     inkscape:window-maximized="1"
     inkscape:current-layer="layer1" /><defs
     id="defs16" /><g
     inkscape:label="Слой 1"
     inkscape:groupmode="layer"
     id="layer1"><path
       d="M 67.090992,115.51907 103.4368,79.191771 139.79055,115.54552 c 1.64042,1.64042 3.81,2.46063 5.97959,2.46063 2.16958,0 4.33387,-0.82682 5.98487,-2.48047 3.30729,-3.30729 3.30729,-8.66511 0,-11.9724 L 109.42168,61.219948 c -3.30729,-3.307291 -8.6651,-3.307291 -11.972396,0 L 55.115951,103.55328 c -3.307292,3.30729 -3.307292,8.66511 0,11.9724 3.307291,3.30729 8.66775,3.30068 11.975041,-0.007 z m 42.325398,-3.4925 c -3.30729,-3.3073 -8.66511,-3.3073 -11.972398,0 L 55.110659,154.3599 c -3.307292,3.30729 -3.307292,8.66511 0,11.9724 3.307292,3.30729 8.665104,3.30729 11.972396,0 l 36.353745,-36.34053 36.35375,36.35376 c 1.64042,1.64041 3.81,2.46062 5.97959,2.46062 2.16958,0 4.33387,-0.82682 5.98487,-2.48047 3.30729,-3.30729 3.30729,-8.6651 0,-11.97239 z"
       id="path23"
       style="stroke-width:0.264583;fill:#aa0000" /></g></svg>
